<svg xmlns="http://www.w3.org/2000/svg" xmlns:xlink="http://www.w3.org/1999/xlink" viewBox="0 0 558.77 100.69"><defs><style>.cls-1{fill:url(#linear-gradient);}.cls-2{fill:url(#linear-gradient-2);}.cls-3{fill:url(#linear-gradient-3);}.cls-4{fill:url(#linear-gradient-4);}.cls-5{fill:url(#linear-gradient-5);}.cls-6{fill:url(#linear-gradient-6);}.cls-7{fill:url(#linear-gradient-7);}.cls-8{fill:url(#linear-gradient-8);}</style><linearGradient id="linear-gradient" y1="50.35" x2="126.36" y2="50.35" gradientUnits="userSpaceOnUse"><stop offset="0" stop-color="#0582e2"/><stop offset="1" stop-color="#0f83dc"/></linearGradient><linearGradient id="linear-gradient-2" x1="134.13" y1="50.35" x2="211.86" y2="50.35" xlink:href="#linear-gradient"/><linearGradient id="linear-gradient-3" x1="215.31" y1="50.35" x2="278.74" y2="50.35" xlink:href="#linear-gradient"/><linearGradient id="linear-gradient-4" x1="284.52" y1="50.35" x2="341.84" y2="50.35" xlink:href="#linear-gradient"/><linearGradient id="linear-gradient-5" x1="338.02" y1="50.35" x2="401.72" y2="50.35" xlink:href="#linear-gradient"/><linearGradient id="linear-gradient-6" x1="405.97" y1="50.35" x2="468.89" y2="50.35" xlink:href="#linear-gradient"/><linearGradient id="linear-gradient-7" x1="468.73" y1="50.35" x2="532.16" y2="50.35" xlink:href="#linear-gradient"/><linearGradient id="linear-gradient-8" x1="537.94" y1="50.35" x2="558.77" y2="50.35" xlink:href="#linear-gradient"/></defs><g id="Layer_2" data-name="Layer 2"><g id="Layer_1-2" data-name="Layer 1"><path class="cls-1" d="M0,0H126.36V22H109.91v78.71H86.37V22H75.45v45.1H51.91V22H41.27v78.71H17.73V22H0Z"/><path class="cls-2" d="M134.13,79.05l9.3-57.41h21.43l6.71,23.5a40.64,40.64,0,0,1,1.29,6.63h.52a25,25,0,0,1,1.12-6.63l6.71-23.5h21.27l9.38,57.41H191.8l-2.58-25.73a55.1,55.1,0,0,1-.34-5.68h-.35a48.59,48.59,0,0,1-1.12,4.81l-8.52,26.6H166.67L159,53.92a24.23,24.23,0,0,1-1.12-6.28h-.6c0,1.12,0,3.35-.09,4.47l-2.84,26.94Z"/><path class="cls-3" d="M238.89,71.91l-1.55,7.14h-22l19.88-57.41h23.07l20.48,57.41H256.62l-1.89-7.14Zm8.43-31.07h-.77a30.63,30.63,0,0,1-.94,6.45l-2.85,11h8.35l-2.67-11C247.93,45.05,247.58,42.9,247.32,40.84Z"/><path class="cls-4" d="M284.52,79.05V21.64h20V39.46a50.13,50.13,0,0,1-.44,7.23h.44a39.2,39.2,0,0,1,3-6.46l9.9-18.59H340L322,49.79l19.8,29.26h-24.1l-10.5-18.42a54.37,54.37,0,0,1-2.75-5.51h-.44a29,29,0,0,1,.44,5.43v18.5Z"/><path class="cls-5" d="M393.71,71.13c-4.9,5-12.91,9.21-23.84,9.21S350.94,76.13,346,71.13c-4.48-4.56-8-11.62-8-20.83a29.19,29.19,0,0,1,8-20.74c4.91-5,12.91-9.21,23.84-9.21s18.94,4.22,23.84,9.21a29.19,29.19,0,0,1,8,20.74C401.72,59.51,398.19,66.57,393.71,71.13ZM362.38,41.78a12.92,12.92,0,0,0-3.27,8.61,12.23,12.23,0,0,0,3.27,8.52,11,11,0,0,0,15,0,12,12,0,0,0,3.27-8.52,11.68,11.68,0,0,0-3.27-8.61,10.39,10.39,0,0,0-7.49-2.92A10,10,0,0,0,362.38,41.78Z"/><path class="cls-6" d="M436.62,45.66h32.27V47c0,7.06-.6,16.61-7.49,24-5.68,6.11-14.89,9.38-24.36,9.38-12,0-19.36-4.82-23.66-9.46C408,65,406,58.05,406,50.47c0-10.5,4-17.12,7.92-21.08,4.65-4.82,12.57-9,24.1-9a34.5,34.5,0,0,1,16.87,4,26.81,26.81,0,0,1,11,10.59l-19.45,7.23a9,9,0,0,0-7.92-4.39,10.75,10.75,0,0,0-7.32,2.67c-2.32,2.15-4.22,5.85-4.22,10.85,0,3.87,1.3,7.83,3.79,10.24a9.58,9.58,0,0,0,6.8,2.58c3.1,0,7.15-1.12,8.52-4.9h-9.46Z"/><path class="cls-7" d="M492.31,71.91l-1.55,7.14h-22l19.88-57.41h23.07l20.48,57.41H510l-1.89-7.14Zm8.43-31.07H500a30,30,0,0,1-1,6.45l-2.84,11h8.35l-2.67-11C501.35,45.05,501,42.9,500.74,40.84Z"/><path class="cls-8" d="M537.94,79.05V21.64h20.83V79.05Z"/></g></g></svg>